# xmcd CD database file
#
# Track frame offsets:
#	150
#	20587
#	41175
#	61612
#
# Disc length: 1091 seconds
#
# Revision: 0
# Processed by: cddbd v1.5PL3 Copyright (c) Steve Scherf et al.
# Submitted via: CDex 1.40Release
#
DISCID=2c044104
DTITLE=山根康広 - She's my Lady
DYEAR=1996
DGENRE=J-Pop
TTITLE0=She's my Lady
TTITLE1=今日は雨
TTITLE2=She's my Lady(original karaoke)
TTITLE3=今日は雨(original karaoke)
EXTD=YEAR: 1996
EXTT0=
EXTT1=
EXTT2=
EXTT3=
PLAYORDER=
